<?xml version="1.0" encoding="UTF-8"?>
<svg width="1024" height="512" version="1.1" viewBox="0 0 1024 512" xmlns="http://www.w3.org/2000/svg" xmlns:xlink="http://www.w3.org/1999/xlink">
	<defs>
		<radialGradient id="b" cx="624.7" cy="457.5" r="7.137" gradientTransform="matrix(1.688 0 0 1.688 -429.5 -314.5)" gradientUnits="userSpaceOnUse">
			<stop stop-color="#ff0202" offset="0"/>
			<stop stop-color="#ff0202" stop-opacity="0" offset=".8819"/>
		</radialGradient>
		<radialGradient id="a" cx="624.7" cy="457.5" r="6.512" gradientUnits="userSpaceOnUse">
			<stop stop-color="#ff0202" offset="0"/>
			<stop stop-color="#800" offset="1"/>
		</radialGradient>
		<linearGradient id="c" x1="754.6" x2="754.6" y1="483.1" y2="483.3" gradientUnits="userSpaceOnUse">
			<stop stop-color="#24481e" offset="0"/>
			<stop stop-color="#24481e" stop-opacity="0" offset="1"/>
		</linearGradient>
	</defs>
	<g transform="matrix(2.285 -.6121 .6121 2.285 -1148 -296.9)">
		<rect x="603.6" y="369.6" width="297.5" height="228.7" rx="10" ry="10" fill="#6d686c" style="paint-order:stroke fill markers"/>
		<rect x="657.6" y="395.1" width="189.7" height="177.6" fill="#929402" style="paint-order:stroke fill markers"/>
		<rect x="615" y="380.6" width="269.9" height="2.645" fill="#664259" style="paint-order:stroke fill markers"/>
		<rect x="615" y="386" width="269.9" height="2.645" fill="#160d33" style="paint-order:stroke fill markers"/>
		<circle cx="624.7" cy="457.5" r="6.512" fill="url(#a)" style="paint-order:stroke fill markers"/>
		<circle cx="624.7" cy="457.5" r="10.99" fill="url(#b)" style="paint-order:stroke fill markers"/>
		<circle cx="752.4" cy="483.9" r="66.75" fill="url(#c)" stroke="#24481e" stroke-width="14.06" style="paint-order:stroke fill markers"/>
		<circle cx="752.4" cy="483.9" r="10.04" fill="#929402" stroke="#24481e" stroke-width="8" style="paint-order:stroke fill markers"/>
	</g>
	<path d="m108.8 160.1q-10.34 17.75-15.36 35.12-5.017 17.36-5.017 35.19 0 17.83 5.017 35.35 5.094 17.44 15.36 35.12h-12.35q-11.58-18.14-17.36-35.66-5.711-17.52-5.711-34.81 0-17.21 5.711-34.65 5.711-17.44 17.36-35.66zm118 53.41v13.12h-85.98v31.26h-12.97v-44.38zm55.22 7.177h16.36v19.6h-16.36zm23.62-27.63q-7.177-3.01-15.44-3.01-8.258 0-15.44 3.01-7.1 3.01-12.97 8.875-5.943 5.943-8.875 13.04-2.933 7.1-2.933 15.51 0 8.181 2.933 15.28 2.933 7.1 8.875 13.04 5.865 5.865 12.97 8.875 7.177 3.01 15.44 3.01 8.258 0 15.44-3.01 7.1-3.01 12.97-8.875 5.943-5.943 8.875-13.04 2.933-7.1 2.933-15.28 0-8.412-2.933-15.51-2.933-7.1-8.875-13.04-5.865-5.865-12.97-8.875zm-35.27-10.73q9.184-3.859 19.83-3.859t19.83 3.859q9.184 3.859 16.75 11.42 7.641 7.641 11.42 16.82 3.782 9.107 3.782 19.91 0 10.57-3.782 19.76-3.782 9.107-11.42 16.75-7.563 7.563-16.75 11.42t-19.83 3.859-19.83-3.859q-9.184-3.859-16.75-11.42-7.641-7.641-11.42-16.75-3.782-9.184-3.782-19.76 0-10.8 3.782-19.91 3.782-9.184 11.42-16.82 7.563-7.563 16.75-11.42zm148.2 123.9v11.04h-82.12v-11.04zm42.68-85.59h16.36v19.6h-16.36zm23.62-27.63q-7.177-3.01-15.44-3.01-8.258 0-15.44 3.01-7.1 3.01-12.97 8.875-5.943 5.943-8.875 13.04-2.933 7.1-2.933 15.51 0 8.181 2.933 15.28 2.933 7.1 8.875 13.04 5.865 5.865 12.97 8.875 7.177 3.01 15.44 3.01 8.258 0 15.44-3.01 7.1-3.01 12.97-8.875 5.943-5.943 8.875-13.04 2.933-7.1 2.933-15.28 0-8.412-2.933-15.51-2.933-7.1-8.875-13.04-5.865-5.865-12.97-8.875zm-35.27-10.73q9.184-3.859 19.83-3.859t19.83 3.859q9.184 3.859 16.75 11.42 7.641 7.641 11.42 16.82 3.782 9.107 3.782 19.91 0 10.57-3.782 19.76-3.782 9.107-11.42 16.75-7.563 7.563-16.75 11.42-9.184 3.859-19.83 3.859t-19.83-3.859-16.75-11.42q-7.641-7.641-11.42-16.75-3.782-9.184-3.782-19.76 0-10.8 3.782-19.91 3.782-9.184 11.42-16.82 7.563-7.563 16.75-11.42zm82.59-22.23h12.35q11.58 18.21 17.29 35.66 5.788 17.44 5.788 34.65 0 17.29-5.788 34.81-5.711 17.52-17.29 35.66h-12.35q10.26-17.67 15.28-35.12 5.094-17.52 5.094-35.35 0-17.83-5.094-35.19-5.017-17.36-15.28-35.12z" stroke="#fdfdfd" stroke-width="18" style="paint-order:stroke fill markers" aria-label="(⌐⊙_⊙)"/>
</svg>
