<?xml version="1.0" encoding="UTF-8" standalone="no"?>
<!-- Created with Inkscape (http://www.inkscape.org/) -->

<svg
   width="140"
   height="140"
   viewBox="0 0 140 140"
   version="1.1"
   id="svg1"
   sodipodi:docname="favicon.svg"
   inkscape:version="1.3.2 (091e20e, 2023-11-25)"
   xmlns:inkscape="http://www.inkscape.org/namespaces/inkscape"
   xmlns:sodipodi="http://sodipodi.sourceforge.net/DTD/sodipodi-0.dtd"
   xmlns="http://www.w3.org/2000/svg"
   xmlns:svg="http://www.w3.org/2000/svg">
  <sodipodi:namedview
     id="namedview1"
     pagecolor="#949494"
     bordercolor="#eeeeee"
     borderopacity="1"
     inkscape:showpageshadow="true"
     inkscape:pageopacity="0"
     inkscape:pagecheckerboard="true"
     inkscape:deskcolor="#000000"
     inkscape:document-units="px"
     inkscape:zoom="3.7687308"
     inkscape:cx="11.409677"
     inkscape:cy="91.808096"
     inkscape:window-width="2560"
     inkscape:window-height="1359"
     inkscape:window-x="1920"
     inkscape:window-y="25"
     inkscape:window-maximized="0"
     inkscape:current-layer="layer1" />
  <defs
     id="defs1">
    <filter
       inkscape:collect="always"
       style="color-interpolation-filters:sRGB"
       id="filter3"
       x="-0.069120002"
       y="-0.069120002"
       width="1.13824"
       height="1.13824">
      <feGaussianBlur
         inkscape:collect="always"
         stdDeviation="3.456"
         id="feGaussianBlur3" />
    </filter>
  </defs>
  <g
     inkscape:label="Layer 1"
     inkscape:groupmode="layer"
     id="layer1">
    <g
       id="g3"
       transform="translate(10,10)"
       style="fill:#f9f9f9;filter:url(#filter3)">
      <path
         id="path2"
         style="color:#000000;fill:#f9f9f9;-inkscape-stroke:none"
         d="M 60,0 C 26.957736,0 0,26.957726 0,60 c 0,33.042274 26.957736,60 60,60 8.884686,0 17.320872,-1.96469 24.919922,-5.45703 A 21,21 0 0 1 78.082031,100.14258 C 72.571101,102.61461 66.456769,104 60,104 35.604765,104 16,84.395255 16,60 16,35.604745 35.604765,16 60,16 c 24.395235,0 44,19.604745 44,44 0,6.438398 -1.37718,12.536448 -3.83594,18.035156 a 21,21 0 0 1 14.39258,6.857422 C 118.04098,77.300722 120,68.873874 120,60 120,26.957726 93.042264,0 60,0 Z" />
      <circle
         style="fill:#f9f9f9;fill-opacity:1;stroke:none;stroke-width:7.99997;stroke-dasharray:none;stroke-opacity:1"
         id="circle2"
         cx="99.000008"
         cy="99.000008"
         r="13" />
      <path
         id="path3"
         style="fill:#f9f9f9;fill-opacity:1;stroke:none;stroke-width:8;stroke-dasharray:none;stroke-opacity:1"
         d="m 28.150837,43.183288 c -2.520537,4.773426 -3.937513,10.061653 -4.141378,15.45583 l 26.191937,7.018108 -7.018108,26.191937 c 4.773426,2.520537 10.061653,3.937513 15.45583,4.141377 L 76.816712,28.150837 C 72.043285,25.630299 66.755059,24.213323 61.360881,24.00946 l -7.018108,26.191936 z" />
    </g>
    <g
       id="g2"
       transform="translate(10,10)">
      <path
         id="path1"
         style="color:#000000;fill:#000000;-inkscape-stroke:none"
         d="M 60,0 C 26.957736,0 0,26.957726 0,60 c 0,33.042274 26.957736,60 60,60 8.884686,0 17.320872,-1.96469 24.919922,-5.45703 A 21,21 0 0 1 78.082031,100.14258 C 72.571101,102.61461 66.456769,104 60,104 35.604765,104 16,84.395255 16,60 16,35.604745 35.604765,16 60,16 c 24.395235,0 44,19.604745 44,44 0,6.438398 -1.37718,12.536448 -3.83594,18.035156 a 21,21 0 0 1 14.39258,6.857422 C 118.04098,77.300722 120,68.873874 120,60 120,26.957726 93.042264,0 60,0 Z" />
      <circle
         style="fill:#000000;fill-opacity:1;stroke:none;stroke-width:7.99997;stroke-dasharray:none;stroke-opacity:1"
         id="circle3"
         cx="99.000008"
         cy="99.000008"
         r="13" />
      <path
         id="rect5"
         style="fill:#000000;fill-opacity:1;stroke:none;stroke-width:8;stroke-dasharray:none;stroke-opacity:1"
         d="m 28.150837,43.183288 c -2.520537,4.773426 -3.937513,10.061653 -4.141378,15.45583 l 26.191937,7.018108 -7.018108,26.191937 c 4.773426,2.520537 10.061653,3.937513 15.45583,4.141377 L 76.816712,28.150837 C 72.043285,25.630299 66.755059,24.213323 61.360881,24.00946 l -7.018108,26.191936 z" />
    </g>
  </g>
</svg>
