<?xml version="1.0" encoding="UTF-8" standalone="no"?>
<svg
   width="1024"
   height="512"
   viewBox="0 0 1024 512"
   version="1.1"
   id="svg2"
   sodipodi:docname="header.svg"
   inkscape:version="1.3.2 (091e20e, 2023-11-25)"
   xml:space="preserve"
   xmlns:inkscape="http://www.inkscape.org/namespaces/inkscape"
   xmlns:sodipodi="http://sodipodi.sourceforge.net/DTD/sodipodi-0.dtd"
   xmlns="http://www.w3.org/2000/svg"
   xmlns:svg="http://www.w3.org/2000/svg"><defs
     id="defs2" /><sodipodi:namedview
     id="namedview2"
     pagecolor="#000000"
     bordercolor="#666666"
     borderopacity="1.0"
     inkscape:showpageshadow="2"
     inkscape:pageopacity="0.0"
     inkscape:pagecheckerboard="0"
     inkscape:deskcolor="#d1d1d1"
     inkscape:zoom="0.86869173"
     inkscape:cx="562.33988"
     inkscape:cy="437.43941"
     inkscape:window-width="2560"
     inkscape:window-height="1387"
     inkscape:window-x="1920"
     inkscape:window-y="25"
     inkscape:window-maximized="1"
     inkscape:current-layer="g10"
     showgrid="false" /><text
     xml:space="preserve"
     style="font-size:158.059px;font-family:'DejaVu Sans';-inkscape-font-specification:'DejaVu Sans';fill:#000000;stroke:#fdfdfd;stroke-width:18;stroke-dasharray:none;paint-order:stroke fill markers"
     x="40.207523"
     y="334.13278"
     id="text10192"><tspan
       sodipodi:role="line"
       id="tspan10190"
       x="40.207523"
       y="334.13278"
       style="stroke-width:18;stroke-dasharray:none;paint-order:stroke fill markers">(⊙ヮ⚆)</tspan></text><g
     id="g2"
     style="fill:#f9f9f9;stroke-width:1.04924"
     transform="matrix(0.95310508,0,0,0.95303429,515.19223,13.881033)">
	<g
   id="g1"
   style="fill:#f9f9f9;stroke-width:1.04924">
		<rect
   x="174.298"
   y="375.82901"
   width="32.681"
   height="43.574001"
   id="rect1"
   style="fill:#f9f9f9;stroke-width:1.04924" />
	</g>
</g><g
     id="g4"
     style="fill:#f9f9f9;stroke-width:1.04924"
     transform="matrix(0.95310508,0,0,0.95303429,515.19223,13.881033)">
	<g
   id="g3"
   style="fill:#f9f9f9;stroke-width:1.04924">
		<rect
   x="305.021"
   y="375.82901"
   width="32.681"
   height="43.574001"
   id="rect2"
   style="fill:#f9f9f9;stroke-width:1.04924" />
	</g>
</g><g
     id="g6"
     style="fill:#f9f9f9;stroke-width:1.04924"
     transform="matrix(0.95310508,0,0,0.95303429,515.19223,13.881033)">
	<g
   id="g5"
   style="fill:#f9f9f9;stroke-width:1.04924">
		<path
   d="m 152.511,217.871 c -12.009,0 -21.783,9.772 -21.787,21.787 0,12.013 9.773,21.787 21.785,21.787 h 0.002 c 12.013,0 21.787,-9.774 21.787,-21.787 0,-12.013 -9.774,-21.787 -21.787,-21.787 z"
   id="path4"
   style="fill:#f9f9f9;stroke-width:1.04924" />
	</g>
</g><g
     id="g8"
     style="fill:#f9f9f9;stroke-width:1.04924"
     transform="matrix(0.95310508,0,0,0.95303429,515.19223,13.881033)">
	<g
   id="g7"
   style="fill:#f9f9f9;stroke-width:1.04924">
		<path
   d="m 359.489,217.871 c -12.009,0 -21.783,9.772 -21.787,21.787 0,12.013 9.773,21.787 21.785,21.787 h 0.002 c 12.013,0 21.787,-9.774 21.787,-21.787 10e-4,-12.013 -9.773,-21.787 -21.787,-21.787 z"
   id="path6"
   style="fill:#f9f9f9;stroke-width:1.04924" />
	</g>
</g><g
     id="g10"
     style="fill:#000000;stroke-width:18;stroke-dasharray:none;stroke:#fdfdfd;stroke-opacity:1;fill-opacity:1;paint-order:stroke fill markers"
     transform="translate(503.18711,1.8577496)">
	<g
   id="g9"
   style="fill:#000000;fill-opacity:1;stroke:#fdfdfd;stroke-width:18.8863;stroke-dasharray:none;stroke-opacity:1;paint-order:stroke fill markers"
   transform="matrix(0.95310508,0,0,0.95303429,12.005122,12.023283)">
		<path
   d="m 462.979,76.254 c -29.141,0 -54.221,17.7 -65.071,42.91 -4.503,-4.073 -9.469,-7.641 -14.795,-10.641 C 381.81,103.929 376.211,84.56 368.94,64.879 354.373,25.447 343.131,10.801 327.643,10.896 c -15.541,0.077 -26.585,14.821 -40.75,54.401 -4.355,12.169 -8.075,24.211 -10.588,32.746 h -40.622 c -2.598,-8.536 -6.509,-20.789 -11.08,-33.162 -14.527,-39.327 -25.698,-53.983 -41.17,-53.983 -0.041,0 -0.085,0 -0.126,0 -15.541,0.077 -26.585,14.821 -40.75,54.401 -6.786,18.961 -12.035,37.619 -13.557,43.161 -5.371,3.014 -10.375,6.605 -14.911,10.707 C 103.241,93.956 78.162,76.256 49.02,76.256 H 0 v 49.021 c 0,39.044 31.765,70.809 70.809,70.809 h 16.34 v 92.596 c 0,22.464 10.539,43.118 27.851,56.308 -3.898,9.523 -6.063,19.931 -6.063,30.841 v 43.574 c 0,45.051 36.652,81.702 81.702,81.702 h 130.723 c 45.051,0 81.702,-36.652 81.702,-81.702 v -43.574 c 0,-10.909 -2.166,-21.317 -6.062,-30.84 17.311,-13.189 27.85,-33.844 27.85,-56.308 v -92.597 h 16.34 c 39.044,0 70.809,-31.765 70.809,-70.809 V 76.254 c -10e-4,0 -49.022,0 -49.022,0 z m -375.83,87.149 h -16.34 c -21.024,0 -38.128,-17.104 -38.128,-38.128 v -16.34 h 16.34 c 21.024,0 38.128,17.104 38.128,38.128 z M 327.847,51.423 c 5.249,10.495 11.933,27.786 18.007,46.687 -0.9,-0.029 -35.462,-0.069 -35.462,-0.069 5.861,-18.862 12.332,-36.114 17.455,-46.618 z m -144.335,0 c 5.242,10.483 11.915,27.744 17.985,46.618 0,0 -34.525,0.039 -35.462,0.071 5.865,-18.89 12.348,-36.173 17.477,-46.689 z m -14.661,79.299 h 174.298 c 21.302,0 39.464,13.663 46.211,32.681 h -35.317 c -39.044,0 -70.808,31.765 -70.808,70.808 v 59.915 h -54.468 v -59.915 c 0,-39.044 -31.765,-70.808 -70.809,-70.808 H 122.64 c 6.746,-19.018 24.909,-32.681 46.211,-32.681 z M 119.83,288.679 v -92.596 h 38.128 c 21.024,0 38.128,17.104 38.128,38.128 v 59.915 h -5.447 c -22.344,0 -42.615,9.023 -57.379,23.609 -8.384,-7.123 -13.43,-17.654 -13.43,-29.056 z m 250.553,130.724 c 0,27.03 -21.991,49.021 -49.021,49.021 H 190.638 c -27.03,0 -49.021,-21.991 -49.021,-49.021 v -43.574 c 0,-27.03 21.991,-49.021 49.021,-49.021 h 130.723 c 27.03,0 49.021,21.991 49.021,49.021 v 43.574 z M 392.17,288.681 c 0,11.401 -5.045,21.933 -13.429,29.055 -14.765,-14.586 -35.036,-23.61 -57.38,-23.61 h -5.447 v -59.915 c 0,-21.024 17.104,-38.128 38.128,-38.128 h 38.128 z m 87.149,-163.406 c 0,21.024 -17.104,38.128 -38.128,38.128 h -16.34 v -16.34 c 0,-21.024 17.104,-38.128 38.128,-38.128 h 16.34 z"
   id="path8"
   style="fill:#000000;fill-opacity:1;stroke:#fdfdfd;stroke-width:18.8863;stroke-dasharray:none;stroke-opacity:1;paint-order:stroke fill markers" />
	</g>
</g></svg>
