<?xml version="1.0" encoding="UTF-8" standalone="no"?>
<svg
   width="1024"
   height="512"
   viewBox="0 0 1024 512"
   version="1.1"
   id="svg2"
   sodipodi:docname="header.svg"
   inkscape:version="1.3.1 (91b66b0783, 2023-11-16)"
   xmlns:inkscape="http://www.inkscape.org/namespaces/inkscape"
   xmlns:sodipodi="http://sodipodi.sourceforge.net/DTD/sodipodi-0.dtd"
   xmlns="http://www.w3.org/2000/svg"
   xmlns:svg="http://www.w3.org/2000/svg">
  <defs
     id="defs2" />
  <sodipodi:namedview
     id="namedview2"
     pagecolor="#000000"
     bordercolor="#666666"
     borderopacity="1.0"
     inkscape:showpageshadow="2"
     inkscape:pageopacity="0.0"
     inkscape:pagecheckerboard="0"
     inkscape:deskcolor="#d1d1d1"
     inkscape:zoom="0.86869173"
     inkscape:cx="314.26568"
     inkscape:cy="231.958"
     inkscape:window-width="1920"
     inkscape:window-height="1009"
     inkscape:window-x="3278"
     inkscape:window-y="-8"
     inkscape:window-maximized="1"
     inkscape:current-layer="svg2" />
  <path
     d="m 572.00619,352.73113 h -18.07546 q -13.97099,-16.02322 -21.70633,-34.96694 -7.73535,-18.94371 -7.73535,-42.70228 0,-23.75857 7.73535,-42.70228 7.73534,-18.94371 21.70633,-34.96693 h 18.07546 v 0.78932 q -6.3935,5.76204 -12.23448,13.33953 -5.76205,7.49855 -10.73477,17.52293 -4.73593,9.70865 -7.73535,21.39061 -2.92049,11.68195 -2.92049,24.62682 0,13.4974 2.84156,24.70576 2.92049,11.20836 7.81428,21.31167 4.73593,9.70866 10.8137,17.52294 6.07777,7.89321 12.15555,13.33953 z M 661.811,276.16696 q 0,21.54847 -11.0505,34.01975 -11.0505,12.47128 -29.59955,12.47128 -18.70691,0 -29.75741,-12.47128 -10.97156,-12.47128 -10.97156,-34.01975 0,-21.54847 10.97156,-34.01975 11.0505,-12.5502 29.75741,-12.5502 18.54905,0 29.59955,12.5502 11.0505,12.47128 11.0505,34.01975 z m -15.31283,0 q 0,-17.12827 -6.70923,-25.41614 -6.70923,-8.36681 -18.62799,-8.36681 -12.07661,0 -18.78584,8.36681 -6.6303,8.28787 -6.6303,25.41614 0,16.57575 6.70923,25.17935 6.70923,8.52467 18.70691,8.52467 11.83982,0 18.54905,-8.44574 6.78817,-8.52467 6.78817,-25.25828 z m 1.57864,-58.33084 H 635.5266 l -14.60244,-20.20663 -14.52351,20.20663 h -12.23448 l 17.99652,-29.91528 h 17.91759 z m 38.57794,133.55316 26.52119,-53.12132 26.5212,53.12132 H 728.8045 l -15.70749,-31.17819 -15.54963,31.17819 z m 165.77707,-75.22232 q 0,21.54847 -11.0505,34.01975 -11.0505,12.47128 -29.59955,12.47128 -18.70691,0 -29.75741,-12.47128 -10.97156,-12.47128 -10.97156,-34.01975 0,-21.54847 10.97156,-34.01975 11.0505,-12.5502 29.75741,-12.5502 18.54905,0 29.59955,12.5502 11.0505,12.47128 11.0505,34.01975 z m -15.31283,0 q 0,-17.12827 -6.70923,-25.41614 -6.70924,-8.36681 -18.62799,-8.36681 -12.07661,0 -18.78584,8.36681 -6.6303,8.28787 -6.6303,25.41614 0,16.57575 6.70923,25.17935 6.70923,8.52467 18.70691,8.52467 11.83982,0 18.54905,-8.44574 6.78817,-8.52467 6.78817,-25.25828 z m 3.9466,-61.33026 h -58.56764 v -12.15555 h 58.56764 z m 72.19309,60.22521 q 0,23.75857 -7.73534,42.70228 -7.73535,18.94372 -21.70634,34.96694 h -18.07546 v -0.78932 q 6.07778,-5.44632 12.15555,-13.33953 6.15671,-7.81428 10.8137,-17.52294 4.89379,-10.10331 7.73535,-21.31167 2.92049,-11.20836 2.92049,-24.70576 0,-12.94487 -2.92049,-24.62682 -2.92049,-11.68196 -7.73535,-21.39061 -4.97272,-10.02438 -10.8137,-17.52293 -5.76205,-7.57749 -12.15555,-13.33953 V 197.3927 H 883.817 q 13.97099,16.02322 21.70634,34.96693 7.73534,18.94371 7.73534,42.70228 z"
     id="path137"
     style="font-size:161.653px;line-height:1.25;stroke-width:16;fill:none;stroke:#fefefe;stroke-opacity:1;stroke-dasharray:none"
     aria-label="( ô ‸ ō )" />
  <path
     id="rect137"
     style="fill:#ffffff;stroke-width:17.453"
     transform="rotate(15)"
     d="M 106.56842,-25.741745 H 520.17731 V 387.86714 H 106.56842 Z" />
  <path
     d="m 572.00619,352.73113 h -18.07546 q -13.97099,-16.02322 -21.70633,-34.96694 -7.73535,-18.94371 -7.73535,-42.70228 0,-23.75857 7.73535,-42.70228 7.73534,-18.94371 21.70633,-34.96693 h 18.07546 v 0.78932 q -6.3935,5.76204 -12.23448,13.33953 -5.76205,7.49855 -10.73477,17.52293 -4.73593,9.70865 -7.73535,21.39061 -2.92049,11.68195 -2.92049,24.62682 0,13.4974 2.84156,24.70576 2.92049,11.20836 7.81428,21.31167 4.73593,9.70866 10.8137,17.52294 6.07777,7.89321 12.15555,13.33953 z M 661.811,276.16696 q 0,21.54847 -11.0505,34.01975 -11.0505,12.47128 -29.59955,12.47128 -18.70691,0 -29.75741,-12.47128 -10.97156,-12.47128 -10.97156,-34.01975 0,-21.54847 10.97156,-34.01975 11.0505,-12.5502 29.75741,-12.5502 18.54905,0 29.59955,12.5502 11.0505,12.47128 11.0505,34.01975 z m -15.31283,0 q 0,-17.12827 -6.70923,-25.41614 -6.70923,-8.36681 -18.62799,-8.36681 -12.07661,0 -18.78584,8.36681 -6.6303,8.28787 -6.6303,25.41614 0,16.57575 6.70923,25.17935 6.70923,8.52467 18.70691,8.52467 11.83982,0 18.54905,-8.44574 6.78817,-8.52467 6.78817,-25.25828 z m 1.57864,-58.33084 H 635.5266 l -14.60244,-20.20663 -14.52351,20.20663 h -12.23448 l 17.99652,-29.91528 h 17.91759 z m 38.57794,133.55316 26.52119,-53.12132 26.5212,53.12132 H 728.8045 l -15.70749,-31.17819 -15.54963,31.17819 z m 165.77707,-75.22232 q 0,21.54847 -11.0505,34.01975 -11.0505,12.47128 -29.59955,12.47128 -18.70691,0 -29.75741,-12.47128 -10.97156,-12.47128 -10.97156,-34.01975 0,-21.54847 10.97156,-34.01975 11.0505,-12.5502 29.75741,-12.5502 18.54905,0 29.59955,12.5502 11.0505,12.47128 11.0505,34.01975 z m -15.31283,0 q 0,-17.12827 -6.70923,-25.41614 -6.70924,-8.36681 -18.62799,-8.36681 -12.07661,0 -18.78584,8.36681 -6.6303,8.28787 -6.6303,25.41614 0,16.57575 6.70923,25.17935 6.70923,8.52467 18.70691,8.52467 11.83982,0 18.54905,-8.44574 6.78817,-8.52467 6.78817,-25.25828 z m 3.9466,-61.33026 h -58.56764 v -12.15555 h 58.56764 z m 72.19309,60.22521 q 0,23.75857 -7.73534,42.70228 -7.73535,18.94372 -21.70634,34.96694 h -18.07546 v -0.78932 q 6.07778,-5.44632 12.15555,-13.33953 6.15671,-7.81428 10.8137,-17.52294 4.89379,-10.10331 7.73535,-21.31167 2.92049,-11.20836 2.92049,-24.70576 0,-12.94487 -2.92049,-24.62682 -2.92049,-11.68196 -7.73535,-21.39061 -4.97272,-10.02438 -10.8137,-17.52293 -5.76205,-7.57749 -12.15555,-13.33953 V 197.3927 H 883.817 q 13.97099,16.02322 21.70634,34.96693 7.73534,18.94371 7.73534,42.70228 z"
     id="text2"
     style="font-size:161.653px;line-height:1.25;stroke-width:4.04133"
     aria-label="( ô ‸ ō )" />
  <path
     style="fill:none;stroke:#000000;stroke-width:8.61685;stroke-linecap:butt;stroke-linejoin:miter;stroke-dasharray:none;stroke-opacity:1"
     d="M 73.916365,135.88916 473.43187,242.93901"
     id="path1"
     sodipodi:nodetypes="cc" />
  <path
     style="fill:none;stroke:#000000;stroke-width:8.61685;stroke-linecap:butt;stroke-linejoin:miter;stroke-dasharray:none;stroke-opacity:1"
     d="M 242.77148,38.400607 135.72163,437.91611"
     id="path2" />
  <path
     style="fill:none;stroke:#000000;stroke-width:8.61685;stroke-linecap:butt;stroke-linejoin:miter;stroke-dasharray:none;stroke-opacity:1"
     d="M 38.233079,269.06099 437.74858,376.11084"
     id="path3"
     sodipodi:nodetypes="cc" />
  <path
     style="fill:none;stroke:#000000;stroke-width:8.61685;stroke-linecap:butt;stroke-linejoin:miter;stroke-dasharray:none;stroke-opacity:1"
     d="M 375.94332,74.083892 268.89346,473.59939"
     id="path4" />
  <path
     style="fill:none;stroke:#000000;stroke-width:2.87228;stroke-linecap:butt;stroke-linejoin:miter;stroke-dasharray:none;stroke-opacity:1"
     d="M 153.99026,14.61175 46.940406,414.12725"
     id="path5" />
  <path
     style="fill:none;stroke:#000000;stroke-width:2.87228;stroke-linecap:butt;stroke-linejoin:miter;stroke-dasharray:none;stroke-opacity:1"
     d="M 198.38087,26.506178 91.331018,426.02168"
     id="path6" />
  <path
     style="fill:none;stroke:#000000;stroke-width:2.87228;stroke-linecap:butt;stroke-linejoin:miter;stroke-dasharray:none;stroke-opacity:1"
     d="M 287.1621,50.295035 180.11224,449.81054"
     id="path7" />
  <path
     style="fill:none;stroke:#000000;stroke-width:2.87228;stroke-linecap:butt;stroke-linejoin:miter;stroke-dasharray:none;stroke-opacity:1"
     d="M 331.55271,62.189463 224.50285,461.70497"
     id="path8" />
  <path
     style="fill:none;stroke:#000000;stroke-width:2.87228;stroke-linecap:butt;stroke-linejoin:miter;stroke-dasharray:none;stroke-opacity:1"
     d="M 420.33393,85.97832 313.28407,485.49382"
     id="path9" />
  <path
     style="fill:none;stroke:#000000;stroke-width:2.87228;stroke-linecap:butt;stroke-linejoin:miter;stroke-dasharray:none;stroke-opacity:1"
     d="M 464.72454,97.872748 357.67469,497.38825"
     id="path10" />
  <path
     style="fill:none;stroke:#000000;stroke-width:2.87228;stroke-linecap:butt;stroke-linejoin:miter;stroke-dasharray:none;stroke-opacity:1"
     d="M 14.444223,357.84221 413.95973,464.89207"
     id="path11" />
  <path
     style="fill:none;stroke:#000000;stroke-width:2.87228;stroke-linecap:butt;stroke-linejoin:miter;stroke-dasharray:none;stroke-opacity:1"
     d="M 26.338652,313.4516 425.85415,420.50146"
     id="path12" />
  <path
     style="fill:none;stroke:#000000;stroke-width:2.87228;stroke-linecap:butt;stroke-linejoin:miter;stroke-dasharray:none;stroke-opacity:1"
     d="M 50.127508,224.67038 449.64301,331.72023"
     id="path13" />
  <path
     style="fill:none;stroke:#000000;stroke-width:2.87228;stroke-linecap:butt;stroke-linejoin:miter;stroke-dasharray:none;stroke-opacity:1"
     d="M 62.021937,180.27977 461.53744,287.32962"
     id="path14" />
  <path
     style="fill:none;stroke:#000000;stroke-width:2.87228;stroke-linecap:butt;stroke-linejoin:miter;stroke-dasharray:none;stroke-opacity:1"
     d="M 85.810793,91.498544 485.3263,198.5484"
     id="path15" />
  <path
     style="fill:none;stroke:#000000;stroke-width:2.87228;stroke-linecap:butt;stroke-linejoin:miter;stroke-dasharray:none;stroke-opacity:1"
     d="M 97.705222,47.107933 497.22072,154.15779"
     id="path16" />
  <path
     d="m 165.91027,-19.492254 h 21.69919 v 7.292902 h -14.69801 l -0.78538,4.936733 q 1.52589,-0.7180703 3.00691,-1.0771055 1.50346,-0.3590351 2.96205,-0.3590351 4.93673,0 8.01097,2.9844798 3.07424,2.9844798 3.07424,7.5172987 0,3.1864371 -1.59322,6.1260375 -1.57078,2.9396006 -4.48794,4.4879396 -2.89472,1.548339 -7.42754,1.548339 -3.25376,0 -5.58749,-0.605872 -2.31129,-0.628311 -3.94938,-1.840055 -1.61566,-1.234183 -2.62545,-2.7825225 -1.00978,-1.5483391 -1.68298,-3.859628 l 9.24516,-1.0097864 q 0.3366,2.2215301 1.57078,3.3883944 1.23418,1.1444246 2.9396,1.1444246 1.90737,0 3.14156,-1.4361407 1.25662,-1.4585804 1.25662,-4.3308617 0,-2.93960038 -1.25662,-4.3084219 -1.25663,-1.3688216 -3.34352,-1.3688216 -1.32394,0 -2.55812,0.6507512 -0.92003,0.4712337 -2.01958,1.70541706 l -7.78657,-1.12198486 z"
     id="text16"
     style="font-weight:900;font-size:45.9565px;line-height:1.25;font-family:Arial;-inkscape-font-specification:'Arial, Heavy';stroke-width:1.38028"
     transform="rotate(15)"
     aria-label="5" />
  <path
     d="m 138.97138,26.464289 v 33.45759 h -9.24516 V 37.998294 q -2.24397,1.705417 -4.3533,2.760083 -2.08689,1.054666 -5.25089,2.019573 v -7.494859 q 4.66746,-1.50346 7.24803,-3.612792 2.58056,-2.109331 4.03914,-5.20601 z"
     id="text17"
     style="font-weight:900;font-size:45.9565px;line-height:1.25;font-family:Arial;-inkscape-font-specification:'Arial, Heavy';stroke-width:1.38028"
     transform="rotate(15)"
     aria-label="1" />
  <path
     d="M 300.51492,6.3021777 309.603,5.1577531 q 0.35904,1.9073744 1.21174,2.6927638 0.85271,0.7853894 2.0869,0.7853894 2.19909,0 3.43327,-2.2215301 0.89759,-1.6380979 1.34638,-6.93386659 -1.6381,1.68297729 -3.36595,2.46836679 -1.72786,0.7853894 -3.99427,0.7853894 -4.42062,0 -7.47242,-3.1415577 -3.02936,-3.1415577 -3.02936,-7.943653 0,-3.2761961 1.54834,-5.9689601 1.54834,-2.692763 4.26354,-4.061585 2.71521,-1.391261 6.82167,-1.391261 4.93674,0 7.92122,1.705417 2.98448,1.682977 4.75721,5.385527 1.79518,3.6801109 1.79518,9.7388293 0,8.90856 -3.74743,13.0599037 -3.74743,4.128905 -10.38958,4.128905 -3.92695,0 -6.19336,-0.897588 -2.26641,-0.920028 -3.76987,-2.670324 -1.50346,-1.7502966 -2.31129,-4.3757413 z M 317.3447,-8.3733846 q 0,-2.6703244 -1.34639,-4.1737834 -1.34638,-1.5259 -3.27619,-1.5259 -1.81762,0 -3.02936,1.368822 -1.1893,1.368821 -1.1893,4.1064644 0,2.7600828 1.23418,4.2186632 1.25662,1.4585804 3.11912,1.4585804 1.92981,0 3.20887,-1.413701 1.27907,-1.413701 1.27907,-4.0391456 z"
     id="text18"
     style="font-weight:900;font-size:45.9565px;line-height:1.25;font-family:Arial;-inkscape-font-specification:'Arial, Heavy';stroke-width:1.38028"
     transform="rotate(15)"
     aria-label="9" />
  <path
     d="m 262.96204,82.215758 -8.63928,-1.548339 q 1.0771,-4.128904 4.1289,-6.327995 3.07424,-2.19909 8.68416,-2.19909 6.4402,0 9.31248,2.401048 2.87228,2.401047 2.87228,6.036278 0,2.131772 -1.16686,3.859628 -1.16687,1.727857 -3.52304,3.029359 1.90738,0.471234 2.91716,1.099546 1.6381,1.009786 2.53569,2.670324 0.92003,1.638098 0.92003,3.926947 0,2.872281 -1.50346,5.520166 -1.50346,2.62544 -4.33086,4.06158 -2.82741,1.41371 -7.42754,1.41371 -4.48794,0 -7.09095,-1.05467 -2.58056,-1.05467 -4.26354,-3.07424 -1.66054,-2.042011 -2.55813,-5.11625 l 9.13296,-1.211743 q 0.53855,2.760082 1.66054,3.837188 1.14442,1.054665 2.89472,1.054665 1.84005,0 3.0518,-1.346381 1.23418,-1.346382 1.23418,-3.590352 0,-2.288849 -1.1893,-3.545472 -1.16687,-1.256623 -3.18644,-1.256623 -1.07711,0 -2.96204,0.538553 l 0.47123,-6.529952 q 0.76295,0.112198 1.18931,0.112198 1.79517,0 2.98448,-1.144425 1.21174,-1.144424 1.21174,-2.715203 0,-1.50346 -0.89759,-2.401048 -0.89759,-0.897588 -2.46836,-0.897588 -1.61566,0 -2.62545,0.987347 -1.00978,0.964907 -1.36882,3.410834 z"
     id="text19"
     style="font-weight:900;font-size:45.9565px;line-height:1.25;font-family:Arial;-inkscape-font-specification:'Arial, Heavy';stroke-width:1.38028"
     transform="rotate(15)"
     aria-label="3" />
  <path
     d="m 351.38574,87.915441 q -2.15421,-1.144424 -3.14155,-2.558125 -1.34639,-1.929814 -1.34639,-4.44306 0,-4.128905 3.88207,-6.754349 3.02936,-2.019573 8.01097,-2.019573 6.59727,0 9.73883,2.513246 3.164,2.513246 3.164,6.327995 0,2.22153 -1.25662,4.151344 -0.94247,1.436141 -2.96204,2.782522 2.67032,1.279063 3.97182,3.388395 1.32394,2.109331 1.32394,4.667457 0,2.468367 -1.14442,4.622577 -1.12198,2.13177 -2.78252,3.29864 -1.6381,1.16686 -4.10647,1.70541 -2.44592,0.561 -5.22845,0.561 -5.22845,0 -7.98853,-1.23419 -2.76008,-1.23418 -4.19622,-3.63523 -1.43614,-2.401046 -1.43614,-5.363086 0,-2.894721 1.34638,-4.891855 1.34638,-2.019572 4.15134,-3.119118 z m 4.10647,-6.462633 q 0,1.705418 1.05466,2.760083 1.07711,1.032226 2.84984,1.032226 1.57078,0 2.58057,-1.032226 1.00979,-1.032226 1.00979,-2.670324 0,-1.705417 -1.05467,-2.760083 -1.05467,-1.077105 -2.69276,-1.077105 -1.66054,0 -2.71521,1.054666 -1.03222,1.032226 -1.03222,2.692763 z m -0.49368,14.15945 q 0,2.17665 1.32395,3.567912 1.32394,1.36882 3.02936,1.36882 1.63809,0 2.9396,-1.39126 1.3015,-1.413701 1.3015,-3.567912 0,-2.176651 -1.32394,-3.567912 -1.30151,-1.391261 -3.02936,-1.391261 -1.70542,0 -2.98448,1.346382 -1.25663,1.346382 -1.25663,3.635231 z"
     id="text20"
     style="font-weight:900;font-size:45.9565px;line-height:1.25;font-family:Arial;-inkscape-font-specification:'Arial, Heavy';stroke-width:1.38028"
     transform="rotate(15)"
     aria-label="8" />
  <path
     d="m 418.14392,34.81147 -9.08808,1.121985 q -0.35903,-1.907374 -1.21174,-2.692763 -0.83027,-0.78539 -2.06445,-0.78539 -2.22153,0 -3.45572,2.24397 -0.89758,1.615658 -1.32394,6.911427 1.6381,-1.660538 3.36596,-2.445927 1.72785,-0.807829 3.99426,-0.807829 4.39818,0 7.42754,3.141557 3.0518,3.141558 3.0518,7.966093 0,3.253756 -1.54834,5.94652 -1.5259,2.692764 -4.26354,4.084025 -2.7152,1.368822 -6.82167,1.368822 -4.93673,0 -7.92121,-1.682978 -2.98448,-1.682977 -4.77966,-5.363088 -1.77273,-3.70255 -1.77273,-9.783708 0,-8.90856 3.74743,-13.037464 3.74742,-4.151344 10.38958,-4.151344 3.92694,0 6.19335,0.920027 2.28885,0.897588 3.79231,2.647885 1.50346,1.750296 2.28885,4.39818 z m -16.82977,14.653123 q 0,2.670324 1.34638,4.196224 1.34638,1.503459 3.29863,1.503459 1.79518,0 3.00692,-1.368821 1.21175,-1.368822 1.21175,-4.084025 0,-2.782523 -1.25663,-4.241103 -1.25662,-1.458581 -3.11911,-1.458581 -1.90738,0 -3.20888,1.413701 -1.27906,1.413701 -1.27906,4.039146 z"
     id="text20-9"
     style="font-weight:900;font-size:45.9565px;line-height:1.25;font-family:Arial;-inkscape-font-specification:'Arial, Heavy';stroke-width:1.38028"
     transform="rotate(15)"
     aria-label="6" />
  <path
     d="m 483.74396,144.1718 9.08808,-1.14443 q 0.35903,1.90738 1.21174,2.69277 0.85271,0.78539 2.08689,0.78539 2.19909,0 3.43327,-2.22153 0.89759,-1.6381 1.34639,-6.93387 -1.6381,1.68298 -3.36596,2.46837 -1.72785,0.78539 -3.99426,0.78539 -4.42062,0 -7.47242,-3.14156 -3.02936,-3.14156 -3.02936,-7.94365 0,-3.2762 1.54834,-5.96896 1.54834,-2.69277 4.26354,-4.06159 2.7152,-1.39126 6.82167,-1.39126 4.93673,0 7.92121,1.70542 2.98448,1.68297 4.75722,5.38552 1.79517,3.68011 1.79517,9.73883 0,8.90856 -3.74743,13.05991 -3.74743,4.1289 -10.38958,4.1289 -3.92694,0 -6.19335,-0.89759 -2.26641,-0.92002 -3.76987,-2.67032 -1.50346,-1.7503 -2.31129,-4.37574 z m 16.82977,-14.67556 q 0,-2.67033 -1.34638,-4.17379 -1.34638,-1.5259 -3.2762,-1.5259 -1.81761,0 -3.02936,1.36882 -1.1893,1.36883 -1.1893,4.10647 0,2.76008 1.23418,4.21866 1.25663,1.45858 3.11912,1.45858 1.92982,0 3.20888,-1.4137 1.27906,-1.4137 1.27906,-4.03914 z"
     id="text21"
     style="font-weight:900;font-size:45.9565px;line-height:1.25;font-family:Arial;-inkscape-font-specification:'Arial, Heavy';stroke-width:1.38028"
     transform="rotate(15)"
     aria-label="9" />
  <path
     d="M 418.99661,243.74803 H 391.5753 q 0.47123,-4.06158 2.84984,-7.6295 2.40105,-3.59035 8.97588,-8.45976 4.01671,-2.98448 5.13869,-4.53282 1.12199,-1.54834 1.12199,-2.9396 0,-1.50346 -1.12199,-2.55813 -1.09954,-1.0771 -2.78252,-1.0771 -1.7503,0 -2.87228,1.09954 -1.09955,1.09955 -1.48102,3.88207 l -9.1554,-0.74051 q 0.53855,-3.85963 1.97469,-6.01384 1.43614,-2.17665 4.03915,-3.32107 2.62544,-1.16687 7.24802,-1.16687 4.82454,0 7.49486,1.09955 2.69276,1.09954 4.21866,3.38839 1.54834,2.26641 1.54834,5.09381 0,3.00692 -1.77273,5.74457 -1.7503,2.73764 -6.39532,6.01383 -2.76008,1.90738 -3.70255,2.67033 -0.92002,0.76295 -2.17665,1.99713 h 14.27165 z"
     id="text22"
     style="font-weight:900;font-size:45.9565px;line-height:1.25;font-family:Arial;-inkscape-font-specification:'Arial, Heavy';stroke-width:1.38028"
     transform="rotate(15)"
     aria-label="2" />
  <path
     d="m 315.65049,145.68648 h -16.65025 v -7.51729 l 16.65025,-19.79182 h 7.9661 v 20.21817 h 4.1289 v 7.09094 h -4.1289 v 6.14848 h -7.9661 z m 0,-7.09094 v -10.3447 l -8.79636,10.3447 z"
     id="text23"
     style="font-weight:900;font-size:45.9565px;line-height:1.25;font-family:Arial;-inkscape-font-specification:'Arial, Heavy';stroke-width:1.38028"
     transform="rotate(15)"
     aria-label="4" />
  <path
     d="m 213.51613,133.87198 q -2.15421,-1.14443 -3.14156,-2.55813 -1.34638,-1.92981 -1.34638,-4.44306 0,-4.1289 3.88207,-6.75435 3.02936,-2.01957 8.01097,-2.01957 6.59727,0 9.73883,2.51325 3.164,2.51324 3.164,6.32799 0,2.22153 -1.25663,4.15134 -0.94246,1.43614 -2.96204,2.78253 2.67033,1.27906 3.97183,3.38839 1.32394,2.10933 1.32394,4.66746 0,2.46837 -1.14442,4.62258 -1.12199,2.13177 -2.78253,3.29863 -1.63809,1.16687 -4.10646,1.70542 -2.44593,0.56099 -5.22845,0.56099 -5.22845,0 -7.98853,-1.23418 -2.76009,-1.23419 -4.19623,-3.63523 -1.43614,-2.40105 -1.43614,-5.36309 0,-2.89472 1.34639,-4.89186 1.34638,-2.01957 4.15134,-3.11911 z m 4.10646,-6.46264 q 0,1.70542 1.05467,2.76009 1.07711,1.03222 2.84984,1.03222 1.57078,0 2.58057,-1.03222 1.00978,-1.03223 1.00978,-2.67033 0,-1.70541 -1.05466,-2.76008 -1.05467,-1.07711 -2.69277,-1.07711 -1.66053,0 -2.7152,1.05467 -1.03223,1.03223 -1.03223,2.69276 z m -0.49367,14.15945 q 0,2.17665 1.32394,3.56792 1.32394,1.36882 3.02936,1.36882 1.6381,0 2.9396,-1.39126 1.3015,-1.41371 1.3015,-3.56792 0,-2.17665 -1.32394,-3.56791 -1.3015,-1.39126 -3.02936,-1.39126 -1.70541,0 -2.98448,1.34638 -1.25662,1.34638 -1.25662,3.63523 z"
     id="text24"
     style="font-weight:900;font-size:45.9565px;line-height:1.25;font-family:Arial;-inkscape-font-specification:'Arial, Heavy';stroke-width:1.38028"
     transform="rotate(15)"
     aria-label="8" />
  <path
     d="m 223.73741,191.64303 h -16.65026 v -7.5173 l 16.65026,-19.79182 h 7.96609 v 20.21817 h 4.1289 v 7.09095 h -4.1289 v 6.14847 h -7.96609 z m 0,-7.09095 v -10.3447 l -8.79636,10.3447 z"
     id="text25"
     style="font-weight:900;font-size:45.9565px;line-height:1.25;font-family:Arial;-inkscape-font-specification:'Arial, Heavy';stroke-width:1.38028"
     transform="rotate(15)"
     aria-label="4" />
  <path
     d="m 184.92792,164.33391 v 33.45759 h -9.24515 v -21.92358 q -2.24397,1.70542 -4.3533,2.76008 -2.0869,1.05467 -5.25089,2.01957 v -7.49485 q 4.66745,-1.50346 7.24802,-3.6128 2.58056,-2.10933 4.03914,-5.20601 z"
     id="text26"
     style="font-weight:900;font-size:45.9565px;line-height:1.25;font-family:Arial;-inkscape-font-specification:'Arial, Heavy';stroke-width:1.38028"
     transform="rotate(15)"
     aria-label="1" />
  <path
     d="m 119.95373,164.33393 h 21.69918 v 7.2929 h -14.698 l -0.78539,4.93674 q 1.5259,-0.71807 3.00692,-1.07711 1.50346,-0.35903 2.96204,-0.35903 4.93674,0 8.01097,2.98448 3.07424,2.98448 3.07424,7.5173 0,3.18643 -1.59322,6.12603 -1.57077,2.9396 -4.48794,4.48794 -2.89472,1.54834 -7.42754,1.54834 -3.25375,0 -5.58748,-0.60587 -2.31129,-0.62831 -3.94939,-1.84005 -1.61566,-1.23419 -2.62544,-2.78253 -1.00979,-1.54834 -1.68298,-3.85963 l 9.24516,-1.00978 q 0.33659,2.22153 1.57078,3.38839 1.23418,1.14443 2.9396,1.14443 1.90737,0 3.14155,-1.43614 1.25663,-1.45858 1.25663,-4.33087 0,-2.9396 -1.25663,-4.30842 -1.25662,-1.36882 -3.34351,-1.36882 -1.32394,0 -2.55813,0.65075 -0.92002,0.47124 -2.01957,1.70542 l -7.78657,-1.12199 z"
     id="text27"
     style="font-weight:900;font-size:45.9565px;line-height:1.25;font-family:Arial;-inkscape-font-specification:'Arial, Heavy';stroke-width:1.38028"
     transform="rotate(15)"
     aria-label="5" />
  <path
     d="m 171.04897,220.08536 -8.63928,-1.54833 q 1.0771,-4.12891 4.1289,-6.328 3.07424,-2.19909 8.68416,-2.19909 6.4402,0 9.31248,2.40105 2.87228,2.40105 2.87228,6.03628 0,2.13177 -1.16687,3.85962 -1.16686,1.72786 -3.52303,3.02936 1.90738,0.47124 2.91716,1.09955 1.6381,1.00979 2.53569,2.67032 0.92003,1.6381 0.92003,3.92695 0,2.87228 -1.50346,5.52017 -1.50346,2.62544 -4.33087,4.06158 -2.8274,1.4137 -7.42754,1.4137 -4.48793,0 -7.09094,-1.05466 -2.58056,-1.05467 -4.26354,-3.07424 -1.66054,-2.04202 -2.55813,-5.11625 l 9.13296,-1.21175 q 0.53855,2.76009 1.66054,3.83719 1.14442,1.05467 2.89472,1.05467 1.84005,0 3.0518,-1.34639 1.23418,-1.34638 1.23418,-3.59035 0,-2.28885 -1.1893,-3.54547 -1.16687,-1.25662 -3.18644,-1.25662 -1.07711,0 -2.96204,0.53855 l 0.47123,-6.52995 q 0.76295,0.1122 1.18931,0.1122 1.79517,0 2.98448,-1.14443 1.21174,-1.14442 1.21174,-2.7152 0,-1.50346 -0.89759,-2.40105 -0.89759,-0.89759 -2.46836,-0.89759 -1.61566,0 -2.62545,0.98735 -1.00979,0.96491 -1.36882,3.41083 z"
     id="text28"
     style="font-weight:900;font-size:45.9565px;line-height:1.25;font-family:Arial;-inkscape-font-specification:'Arial, Heavy';stroke-width:1.38028"
     transform="rotate(15)"
     aria-label="3" />
  <path
     d="m 167.55959,317.69816 q -2.15421,-1.14442 -3.14156,-2.55812 -1.34638,-1.92982 -1.34638,-4.44306 0,-4.12891 3.88206,-6.75435 3.02936,-2.01957 8.01098,-2.01957 6.59727,0 9.73883,2.51324 3.16399,2.51325 3.16399,6.328 0,2.22153 -1.25662,4.15134 -0.94247,1.43614 -2.96204,2.78252 2.67032,1.27907 3.97183,3.3884 1.32394,2.10933 1.32394,4.66746 0,2.46836 -1.14443,4.62257 -1.12198,2.13177 -2.78252,3.29864 -1.6381,1.16686 -4.10646,1.70542 -2.44593,0.56099 -5.22845,0.56099 -5.22845,0 -7.98854,-1.23419 -2.76008,-1.23418 -4.19622,-3.63523 -1.43614,-2.40104 -1.43614,-5.36308 0,-2.89472 1.34638,-4.89186 1.34638,-2.01957 4.15135,-3.11912 z m 4.10646,-6.46263 q 0,1.70542 1.05467,2.76008 1.0771,1.03223 2.84984,1.03223 1.57078,0 2.58056,-1.03223 1.00979,-1.03222 1.00979,-2.67032 0,-1.70542 -1.05467,-2.76008 -1.05466,-1.07711 -2.69276,-1.07711 -1.66054,0 -2.7152,1.05467 -1.03223,1.03222 -1.03223,2.69276 z m -0.49367,14.15945 q 0,2.17665 1.32394,3.56791 1.32394,1.36882 3.02936,1.36882 1.6381,0 2.9396,-1.39126 1.3015,-1.4137 1.3015,-3.56791 0,-2.17665 -1.32394,-3.56791 -1.3015,-1.39126 -3.02936,-1.39126 -1.70542,0 -2.98448,1.34638 -1.25662,1.34638 -1.25662,3.63523 z"
     id="text29"
     style="font-weight:900;font-size:45.9565px;line-height:1.25;font-family:Arial;-inkscape-font-specification:'Arial, Heavy';stroke-width:1.38028"
     transform="rotate(15)"
     aria-label="8" />
  <path
     d="m 116.2063,348.44059 h 26.6808 v 6.17092 q -3.47816,3.14156 -5.81188,6.79923 -2.82741,4.44306 -4.4655,9.8959 -1.30151,4.24111 -1.7503,10.03055 h -9.11052 q 1.07711,-8.05585 3.3884,-13.5087 2.31128,-5.45285 7.31534,-11.66864 H 116.2063 Z"
     id="text30"
     style="font-weight:900;font-size:45.9565px;line-height:1.25;font-family:Arial;-inkscape-font-specification:'Arial, Heavy';stroke-width:1.38028"
     transform="rotate(15)"
     aria-label="7" />
  <path
     d="m 276.84099,348.16009 v 33.45759 h -9.24515 v -21.92359 q -2.24397,1.70542 -4.3533,2.76008 -2.0869,1.05467 -5.25089,2.01958 v -7.49486 q 4.66745,-1.50346 7.24802,-3.61279 2.58056,-2.10934 4.03914,-5.20601 z"
     id="text31"
     style="font-weight:900;font-size:45.9565px;line-height:1.25;font-family:Arial;-inkscape-font-specification:'Arial, Heavy';stroke-width:1.38028"
     transform="rotate(15)"
     aria-label="1" />
  <path
     d="m 303.7799,348.16007 h 21.69919 v 7.29291 h -14.69801 l -0.78539,4.93673 q 1.5259,-0.71807 3.00692,-1.07711 1.50346,-0.35903 2.96204,-0.35903 4.93674,0 8.01098,2.98448 3.07423,2.98448 3.07423,7.5173 0,3.18643 -1.59321,6.12603 -1.57078,2.93961 -4.48794,4.48794 -2.89472,1.54834 -7.42754,1.54834 -3.25376,0 -5.58749,-0.60587 -2.31129,-0.62831 -3.94938,-1.84005 -1.61566,-1.23419 -2.62545,-2.78253 -1.00979,-1.54834 -1.68298,-3.85962 l 9.24516,-1.00979 q 0.33659,2.22153 1.57078,3.38839 1.23418,1.14443 2.9396,1.14443 1.90737,0 3.14156,-1.43614 1.25662,-1.45858 1.25662,-4.33086 0,-2.9396 -1.25662,-4.30843 -1.25663,-1.36882 -3.34352,-1.36882 -1.32394,0 -2.55813,0.65075 -0.92002,0.47124 -2.01957,1.70542 l -7.78657,-1.12198 z"
     id="text32"
     style="font-weight:900;font-size:45.9565px;line-height:1.25;font-family:Arial;-inkscape-font-specification:'Arial, Heavy';stroke-width:1.38028"
     transform="rotate(15)"
     aria-label="5" />
  <path
     d="m 372.18735,309.88915 -9.08808,1.12198 q -0.35904,-1.90737 -1.21174,-2.69276 -0.83027,-0.78539 -2.06446,-0.78539 -2.22153,0 -3.45571,2.24397 -0.89759,1.61566 -1.32394,6.91143 1.6381,-1.66054 3.36595,-2.44593 1.72786,-0.80783 3.99427,-0.80783 4.39818,0 7.42754,3.14156 3.0518,3.14156 3.0518,7.96609 0,3.25376 -1.54834,5.94652 -1.5259,2.69277 -4.26354,4.08403 -2.71521,1.36882 -6.82167,1.36882 -4.93674,0 -7.92122,-1.68298 -2.98448,-1.68298 -4.77965,-5.36309 -1.77274,-3.70255 -1.77274,-9.78371 0,-8.90856 3.74743,-13.03746 3.74743,-4.15134 10.38958,-4.15134 3.92695,0 6.19336,0.92002 2.28885,0.89759 3.79231,2.64789 1.50346,1.75029 2.28885,4.39818 z m -16.82978,14.65312 q 0,2.67033 1.34639,4.19623 1.34638,1.50345 3.29863,1.50345 1.79518,0 3.00692,-1.36882 1.21174,-1.36882 1.21174,-4.08402 0,-2.78252 -1.25662,-4.2411 -1.25662,-1.45858 -3.11912,-1.45858 -1.90737,0 -3.20887,1.4137 -1.27907,1.4137 -1.27907,4.03914 z"
     id="text33"
     style="font-weight:900;font-size:45.9565px;line-height:1.25;font-family:Arial;-inkscape-font-specification:'Arial, Heavy';stroke-width:1.38028"
     transform="rotate(15)"
     aria-label="6" />
  <path
     d="m 464.10046,355.84569 -9.08807,1.12199 q -0.35904,-1.90738 -1.21175,-2.69277 -0.83027,-0.78539 -2.06445,-0.78539 -2.22153,0 -3.45571,2.24397 -0.89759,1.61566 -1.32395,6.91143 1.6381,-1.66054 3.36596,-2.44593 1.72786,-0.80783 3.99426,-0.80783 4.39819,0 7.42754,3.14156 3.0518,3.14156 3.0518,7.96609 0,3.25376 -1.54834,5.94652 -1.52589,2.69277 -4.26354,4.08403 -2.7152,1.36882 -6.82167,1.36882 -4.93673,0 -7.92121,-1.68298 -2.98448,-1.68297 -4.77966,-5.36308 -1.77273,-3.70255 -1.77273,-9.78371 0,-8.90856 3.74743,-13.03747 3.74743,-4.15134 10.38958,-4.15134 3.92695,0 6.19335,0.92003 2.28885,0.89758 3.79231,2.64788 1.50346,1.7503 2.28885,4.39818 z m -16.82977,14.65312 q 0,2.67033 1.34638,4.19623 1.34638,1.50346 3.29864,1.50346 1.79517,0 3.00692,-1.36882 1.21174,-1.36883 1.21174,-4.08403 0,-2.78252 -1.25662,-4.2411 -1.25663,-1.45858 -3.11912,-1.45858 -1.90738,0 -3.20888,1.4137 -1.27906,1.4137 -1.27906,4.03914 z"
     id="text34"
     style="font-weight:900;font-size:45.9565px;line-height:1.25;font-family:Arial;-inkscape-font-specification:'Arial, Heavy';stroke-width:1.38028"
     transform="rotate(15)"
     aria-label="6" />
  <path
     d="m 483.85863,302.48405 h 26.6808 v 6.17092 q -3.47815,3.14155 -5.81188,6.79922 -2.8274,4.44306 -4.4655,9.89591 -1.3015,4.2411 -1.75029,10.03055 h -9.11052 q 1.0771,-8.05586 3.38839,-13.5087 2.31129,-5.45285 7.31534,-11.66865 h -16.24634 z"
     id="text35"
     style="font-weight:900;font-size:45.9565px;line-height:1.25;font-family:Arial;-inkscape-font-specification:'Arial, Heavy';stroke-width:1.38028"
     transform="rotate(15)"
     aria-label="7" />
  <path
     d="m 499.4767,283.55611 h -16.65026 v -7.5173 L 499.4767,256.247 h 7.96609 v 20.21817 h 4.1289 v 7.09094 h -4.1289 v 6.14848 h -7.96609 z m 0,-7.09094 v -10.3447 l -8.79637,10.3447 z"
     id="text36"
     style="font-weight:900;font-size:45.9565px;line-height:1.25;font-family:Arial;-inkscape-font-specification:'Arial, Heavy';stroke-width:1.38028"
     transform="rotate(15)"
     aria-label="4" />
</svg>
