<?xml version="1.0" encoding="UTF-8" standalone="no"?>
<svg
   width="1024"
   height="512"
   viewBox="0 0 1024 512"
   version="1.1"
   id="svg2"
   sodipodi:docname="header.svg"
   inkscape:version="1.4 (e7c3feb1, 2024-10-09)"
   xml:space="preserve"
   xmlns:inkscape="http://www.inkscape.org/namespaces/inkscape"
   xmlns:sodipodi="http://sodipodi.sourceforge.net/DTD/sodipodi-0.dtd"
   xmlns="http://www.w3.org/2000/svg"
   xmlns:svg="http://www.w3.org/2000/svg"><defs
     id="defs2"><rect
   x="97.678855"
   y="262.10493"
   width="459.09062"
   height="16.279809"
   id="rect17" /><inkscape:perspective
   sodipodi:type="inkscape:persp3d"
   inkscape:vp_x="-121.89919 : 715.02408 : 1"
   inkscape:vp_y="0 : 1867.158 : 0"
   inkscape:vp_z="1783.9912 : 708.94468 : 1"
   inkscape:persp3d-origin="828.0063 : 81.500515 : 1"
   id="perspective1" />
	
</defs><sodipodi:namedview
     id="namedview2"
     pagecolor="#000000"
     bordercolor="#666666"
     borderopacity="1.0"
     inkscape:showpageshadow="2"
     inkscape:pageopacity="0.0"
     inkscape:pagecheckerboard="0"
     inkscape:deskcolor="#d1d1d1"
     inkscape:zoom="0.61425781"
     inkscape:cx="533.97774"
     inkscape:cy="-159.54213"
     inkscape:window-width="2560"
     inkscape:window-height="1387"
     inkscape:window-x="1920"
     inkscape:window-y="25"
     inkscape:window-maximized="1"
     inkscape:current-layer="svg2"
     showgrid="false" /><g
     id="g17"
     transform="translate(-22.791733,-6.4977354)"><path
       d="M 597.31369,123.30783 779.69554,205.37965 972.38679,129.49298 785.87729,73.401017 Z"
       style="fill:#07070f;fill-opacity:1;fill-rule:evenodd;stroke:#fdfdfd;stroke-width:18;stroke-linejoin:round;stroke-dasharray:none;stroke-opacity:1;paint-order:stroke fill markers"
       id="path15" /><path
       d="M 779.69554,205.37965 V 451.59516 L 972.38679,328.69647 V 129.49298 Z"
       style="fill:#000000;fill-opacity:1;fill-rule:evenodd;stroke:#fdfdfd;stroke-width:18;stroke-linejoin:round;stroke-dasharray:none;stroke-opacity:1;paint-order:stroke fill markers"
       id="path16" /><path
       d="m 597.31369,123.30783 182.38185,82.07182 V 451.59516 L 597.31369,319.44562 Z"
       style="fill:#000000;fill-opacity:1;fill-rule:evenodd;stroke:#fdfdfd;stroke-width:18;stroke-linejoin:round;stroke-dasharray:none;stroke-opacity:1;paint-order:stroke fill markers"
       id="path17" /></g><text
     xml:space="preserve"
     id="text17"
     style="fill:#000000;text-align:start;writing-mode:lr-tb;text-orientation:auto;direction:ltr;stroke:#fdfdfd;stroke-opacity:1;fill-opacity:1;white-space:pre;shape-inside:url(#rect17)" /><path
     d="M 99.00933,331.94241 H 81.33574 Q 67.675367,316.27543 60.111997,297.75289 52.548626,279.23035 52.548626,256 q 0,-23.23035 7.563371,-41.75289 7.56337,-18.52254 21.223743,-34.18952 h 17.67359 v 0.77177 q -6.251357,5.63394 -11.962474,13.04295 -5.633939,7.33184 -10.496105,17.13335 -4.630635,9.4928 -7.563371,20.91504 -2.855558,11.42223 -2.855558,24.0793 0,13.19731 2.778381,24.15648 2.855558,10.95917 7.640548,20.83786 4.630634,9.4928 10.573283,17.13334 5.942648,7.71773 11.885296,13.04296 z m 44.32611,-53.79254 -21.76399,50.5511 h -11.26788 l 13.42885,-50.5511 z m 31.44935,0 -21.76398,50.5511 h -11.26788 l 13.42884,-50.5511 z M 160.41723,253.6075 h -0.0772 l 0.0772,-3.08709 -0.0772,-3.08709 q 18.98561,-1.23483 30.56219,-12.8886 11.57659,-11.65376 11.57659,-29.4817 l 3.24144,0.0772 3.31863,-0.0772 q 0,17.82794 11.57658,29.4817 11.57659,11.65377 30.56219,12.8886 l -0.0772,3.08709 0.0772,3.08709 h -0.15435 q -0.46306,0.0772 -0.77177,0.0772 -18.36819,1.46637 -29.63607,12.81143 -11.57658,11.65376 -11.57658,29.4817 l -3.24145,-0.0772 -3.31862,0.0772 q 0,-17.82794 -11.57659,-29.4817 -11.26788,-11.34506 -29.55888,-12.81143 -0.38589,0 -0.92613,-0.0772 z m 21.14657,-1.31201 q 10.03304,4.86217 15.97569,12.27118 5.55676,7.02313 8.18078,13.5832 l 0.0772,0.0772 v -0.0772 q 2.62403,-6.56007 8.18079,-13.5832 5.94265,-7.40901 15.97569,-12.27118 2.00661,-1.0033 3.93604,-1.77508 -1.92943,-0.77177 -3.93604,-1.69789 -10.03304,-4.93935 -15.97569,-12.34836 -5.55676,-7.02313 -8.18079,-13.5832 l -0.0772,-0.0772 v 0.0772 q -2.62402,6.56007 -8.18078,13.5832 -5.94265,7.40901 -15.97569,12.34836 -2.00661,0.92612 -3.93604,1.69789 1.92943,0.77178 3.93604,1.77508 z m 155.84724,4.78499 q 0,21.06939 -10.80482,33.2634 -10.80481,12.194 -28.94146,12.194 -18.29101,0 -29.09583,-12.194 -10.72763,-12.19401 -10.72763,-33.2634 0,-21.06939 10.72763,-33.26339 10.80482,-12.27119 29.09583,-12.27119 18.13665,0 28.94146,12.27119 10.80482,12.194 10.80482,33.26339 z m -14.97239,0 q 0,-16.74746 -6.56006,-24.85107 -6.56007,-8.18079 -18.21383,-8.18079 -11.80812,0 -18.36819,8.18079 -6.48289,8.10361 -6.48289,24.85107 0,16.20722 6.56007,24.61954 6.56006,8.33515 18.29101,8.33515 11.57658,0 18.13665,-8.25797 6.63724,-8.33514 6.63724,-24.69672 z m 24.96913,-3.47298 h -0.0772 l 0.0772,-3.08709 -0.0772,-3.08709 q 18.9856,-1.23483 30.56219,-12.8886 11.57659,-11.65376 11.57659,-29.4817 l 3.24144,0.0772 3.31862,-0.0772 q 0,17.82794 11.57659,29.4817 11.57659,11.65377 30.56219,12.8886 l -0.0772,3.08709 0.0772,3.08709 h -0.15436 q -0.46306,0.0772 -0.77177,0.0772 -18.36818,1.46637 -29.63606,12.81143 -11.57659,11.65376 -11.57659,29.4817 l -3.24144,-0.0772 -3.31862,0.0772 q 0,-17.82794 -11.57659,-29.4817 -11.26788,-11.34506 -29.55889,-12.81143 -0.38588,0 -0.92613,-0.0772 z m 21.14657,-1.31201 q 10.03304,4.86217 15.97569,12.27118 5.55676,7.02313 8.18079,13.5832 l 0.0772,0.0772 v -0.0772 q 2.62402,-6.56007 8.18079,-13.5832 5.94264,-7.40901 15.97569,-12.27118 2.0066,-1.0033 3.93604,-1.77508 -1.92944,-0.77177 -3.93604,-1.69789 -10.03305,-4.93935 -15.97569,-12.34836 -5.55677,-7.02313 -8.18079,-13.5832 l -0.0772,-0.0772 v 0.0772 q -2.62403,6.56007 -8.18079,13.5832 -5.94265,7.40901 -15.97569,12.34836 -2.00661,0.92612 -3.93604,1.69789 1.92943,0.77178 3.93604,1.77508 z m 88.05391,25.85438 -21.76399,50.5511 h -11.26788 l 13.42885,-50.5511 z m 31.44934,0 -21.76399,50.5511 h -11.26788 l 13.42885,-50.5511 z M 526.42388,256 q 0,23.23035 -7.56337,41.75289 -7.56337,18.52254 -21.22375,34.18952 h -17.67359 v -0.77177 q 5.94265,-5.32523 11.8853,-13.04296 6.01983,-7.64054 10.57328,-17.13334 4.78499,-9.87869 7.56337,-20.83786 2.85556,-10.95917 2.85556,-24.15648 0,-12.65707 -2.85556,-24.0793 -2.85555,-11.42224 -7.56337,-20.91504 -4.86216,-9.80151 -10.57328,-17.13335 -5.63394,-7.40901 -11.8853,-13.04295 v -0.77177 h 17.67359 q 13.66038,15.66698 21.22375,34.18952 7.56337,18.52254 7.56337,41.75289 z"
     id="text10192"
     style="font-size:158.059px;font-family:'DejaVu Sans';-inkscape-font-specification:'DejaVu Sans';stroke:#fdfdfd;stroke-width:18;paint-order:stroke fill markers"
     aria-label="(,,⟡o⟡,,)" /></svg>
