<?xml version="1.0" encoding="UTF-8"?>
<svg width="1024" height="512" version="1.1" viewBox="0 0 1024 512" xmlns="http://www.w3.org/2000/svg">
	<path d="m550.8 327.4h42.6v-154.8l-45.86 10.31v-24.96l45.59-10.04h27.41v179.5h42.06v23.06h-111.8zm225.6-135.8v60.24h60.37v23.06h-60.37v60.24h-22.79v-60.24h-60.24v-23.06h60.24v-60.24zm122.9 135.8h93.07v23.06h-123.1v-23.06q25.37-26.73 44.37-47.21t26.18-28.9q13.57-16.55 18.32-26.73 4.749-10.31 4.749-21.03 0-16.96-10.04-26.59-9.904-9.633-27.27-9.633-12.35 0-25.91 4.477-13.57 4.477-28.76 13.57v-27.68q13.97-6.648 27.41-10.04 13.57-3.392 26.73-3.392 29.71 0 47.76 15.87 18.18 15.74 18.18 41.38 0 13.02-6.105 26.05-5.97 13.02-19.54 28.76-7.598 8.819-22.11 24.42-14.38 15.6-43.96 46.67z" fill="#fff" stroke="#000" stroke-width="18" style="paint-order:stroke fill markers" aria-label="1+2"/>
	<path transform="rotate(15)" d="m100.4 24.58q-10.34 17.75-15.36 35.12t-5.017 35.19q0 17.83 5.017 35.35 5.094 17.44 15.36 35.12h-12.35q-11.58-18.14-17.36-35.66-5.711-17.52-5.711-34.81 0-17.21 5.711-34.65 5.711-17.44 17.36-35.66zm29.4 53.41h98.94v44.38h-12.97v-31.26h-85.98zm196.3 92.77v11.04h-82.12v-11.04zm15.2-92.77h98.94v44.38h-12.97v-31.26h-85.98zm144-48.7v42.83h-13.12v-42.83zm29.17 0v42.83h-13.12v-42.83zm27.86-4.708h12.35q11.58 18.21 17.29 35.66 5.788 17.44 5.788 34.65 0 17.29-5.788 34.81-5.711 17.52-17.29 35.66h-12.35q10.26-17.67 15.28-35.12 5.094-17.52 5.094-35.35 0-17.83-5.094-35.19-5.017-17.36-15.28-35.12z" stroke="#fdfdfd" stroke-width="18" style="paint-order:stroke fill markers" aria-label='(¬_¬")'/>
</svg>
