<?xml version="1.0" encoding="UTF-8" standalone="no"?>
<svg
   width="1024"
   height="512"
   viewBox="0 0 1024 512"
   xmlns="http://www.w3.org/2000/svg">
  <g>
    <path
       d="m 215.72938,189.93644 -12.27079,5.09843 q -3.19732,-14.69039 -8.46858,-23.67745 l 12.96211,-5.35767 q 4.83919,9.67837 7.77726,23.93669 z m -19.7024,7.08596 -12.18438,5.09843 q -3.28374,-14.69039 -8.46858,-23.67746 l 12.87569,-5.35767 q 4.9256,9.67838 7.77727,23.9367 z m 14.69039,108.10399 -16.07302,8.46858 q -22.38124,-65.7611 -66.53882,-113.63449 l 12.53003,-8.98707 q 45.54021,45.88587 70.08181,114.15298 z m 98.9441,40.87385 h -11.14742 q -14.34473,-18.31978 -22.55407,-40.00971 -8.20933,-21.68993 -8.20933,-42.94779 0,-24.10952 8.72782,-44.76248 8.72782,-20.65296 22.03558,-38.28143 h 11.14742 q -15.3817,25.2329 -20.65296,44.244 -5.18485,19.01109 -5.18485,38.62708 0,41.73799 25.83781,83.13033 z m 72.32857,-76.73569 -17.88772,24.19594 H 351.0538 l 10.97459,-24.19594 z m -30.24493,0 -18.23336,24.19594 h -12.44363 l 10.4561,-24.19594 z m 85.72277,-32.40527 h -10.80176 q 0,-9.8512 -4.06146,-16.15943 -4.83919,-7.51802 -14.17191,-7.51802 -9.41913,0 -14.25832,7.43161 -4.06146,6.30822 -4.06146,16.24584 h -10.80176 q 0,-14.51756 7.25878,-23.15897 7.77727,-9.2463 21.86276,-9.2463 13.99908,0 21.77634,9.33272 7.25879,8.72782 7.25879,23.07255 z m 123.14001,74.14327 q -13.82625,0 -25.06007,-6.39465 -11.23383,-6.48105 -19.18393,-18.14695 -7.86368,-11.75231 -12.18438,-28.08457 -4.23429,-16.41867 -4.23429,-36.20749 0,-11.40666 1.55546,-23.41821 1.55545,-12.09797 4.83918,-25.31932 h 111.2149 q 6.30823,26.09705 6.30823,48.65112 0,20.04806 -4.49353,36.46673 -4.40712,16.41867 -12.70287,28.08457 -8.20934,11.6659 -19.87524,18.06054 -11.66589,6.30823 -26.18346,6.30823 z m 0,-13.56701 q 8.20934,0 14.94964,-2.76525 6.82671,-2.85167 12.27079,-7.86368 5.44409,-5.01202 9.50555,-11.92514 4.06146,-6.91313 6.7403,-15.12246 2.76525,-8.20934 4.06146,-17.36923 1.38262,-9.15989 1.38262,-18.66544 0,-8.38216 -1.03697,-17.97412 -1.03696,-9.67838 -3.1109,-19.09751 h -86.15482 q -2.50601,10.19686 -3.71581,20.48013 -1.20979,10.19686 -1.20979,19.27034 0,8.98706 1.29621,17.8013 1.29621,8.72782 3.80222,16.5915 2.59242,7.86368 6.39464,14.60397 3.88863,6.7403 8.98706,11.6659 5.18484,4.83919 11.6659,7.60444 6.48105,2.76525 14.1719,2.76525 z M 784.3339,236.85928 h -10.80175 q 0,-9.8512 -4.06147,-16.15943 -4.83918,-7.51802 -14.1719,-7.51802 -9.41913,0 -14.25832,7.43161 -4.06146,6.30822 -4.06146,16.24584 h -10.80176 q 0,-14.51756 7.25878,-23.15897 7.77727,-9.2463 21.86276,-9.2463 13.99908,0 21.77634,9.33272 7.25878,8.72782 7.25878,23.07255 z m 70.25466,32.40527 -17.88771,24.19594 h -13.04852 l 10.97458,-24.19594 z m -30.24492,0 -18.23337,24.19594 h -12.44362 l 10.4561,-24.19594 z m 40.78743,-89.26572 q 14.34474,18.31978 22.55407,40.00971 8.20934,21.68993 8.20934,43.0342 0,24.02311 -8.72782,44.67607 -8.72782,20.65296 -22.03559,38.28143 h -11.14741 q 15.3817,-25.23291 20.56655,-44.15759 5.27125,-19.01109 5.27125,-38.62708 0,-41.82441 -25.8378,-83.21674 z"
       style="font-size:176.976px;stroke:#ffffff;stroke-width:16.0001"
       aria-label="ヾ(˶ᵔ ᗜ ᵔ˶)" />
    <path
       d="m 215.72938,189.93644 -12.27079,5.09843 q -3.19732,-14.69039 -8.46858,-23.67745 l 12.96211,-5.35767 q 4.83919,9.67837 7.77726,23.93669 z m -19.7024,7.08596 -12.18438,5.09843 q -3.28374,-14.69039 -8.46858,-23.67746 l 12.87569,-5.35767 q 4.9256,9.67838 7.77727,23.9367 z m 14.69039,108.10399 -16.07302,8.46858 q -22.38124,-65.7611 -66.53882,-113.63449 l 12.53003,-8.98707 q 45.54021,45.88587 70.08181,114.15298 z m 98.9441,40.87385 h -11.14742 q -14.34473,-18.31978 -22.55407,-40.00971 -8.20933,-21.68993 -8.20933,-42.94779 0,-24.10952 8.72782,-44.76248 8.72782,-20.65296 22.03558,-38.28143 h 11.14742 q -15.3817,25.2329 -20.65296,44.244 -5.18485,19.01109 -5.18485,38.62708 0,41.73799 25.83781,83.13033 z m 72.32857,-76.73569 -17.88772,24.19594 H 351.0538 l 10.97459,-24.19594 z m -30.24493,0 -18.23336,24.19594 h -12.44363 l 10.4561,-24.19594 z m 85.72277,-32.40527 h -10.80176 q 0,-9.8512 -4.06146,-16.15943 -4.83919,-7.51802 -14.17191,-7.51802 -9.41913,0 -14.25832,7.43161 -4.06146,6.30822 -4.06146,16.24584 h -10.80176 q 0,-14.51756 7.25878,-23.15897 7.77727,-9.2463 21.86276,-9.2463 13.99908,0 21.77634,9.33272 7.25879,8.72782 7.25879,23.07255 z m 123.14001,74.14327 q -13.82625,0 -25.06007,-6.39465 -11.23383,-6.48105 -19.18393,-18.14695 -7.86368,-11.75231 -12.18438,-28.08457 -4.23429,-16.41867 -4.23429,-36.20749 0,-11.40666 1.55546,-23.41821 1.55545,-12.09797 4.83918,-25.31932 h 111.2149 q 6.30823,26.09705 6.30823,48.65112 0,20.04806 -4.49353,36.46673 -4.40712,16.41867 -12.70287,28.08457 -8.20934,11.6659 -19.87524,18.06054 -11.66589,6.30823 -26.18346,6.30823 z m 0,-13.56701 q 8.20934,0 14.94964,-2.76525 6.82671,-2.85167 12.27079,-7.86368 5.44409,-5.01202 9.50555,-11.92514 4.06146,-6.91313 6.7403,-15.12246 2.76525,-8.20934 4.06146,-17.36923 1.38262,-9.15989 1.38262,-18.66544 0,-8.38216 -1.03697,-17.97412 -1.03696,-9.67838 -3.1109,-19.09751 h -86.15482 q -2.50601,10.19686 -3.71581,20.48013 -1.20979,10.19686 -1.20979,19.27034 0,8.98706 1.29621,17.8013 1.29621,8.72782 3.80222,16.5915 2.59242,7.86368 6.39464,14.60397 3.88863,6.7403 8.98706,11.6659 5.18484,4.83919 11.6659,7.60444 6.48105,2.76525 14.1719,2.76525 z M 784.3339,236.85928 h -10.80175 q 0,-9.8512 -4.06147,-16.15943 -4.83918,-7.51802 -14.1719,-7.51802 -9.41913,0 -14.25832,7.43161 -4.06146,6.30822 -4.06146,16.24584 h -10.80176 q 0,-14.51756 7.25878,-23.15897 7.77727,-9.2463 21.86276,-9.2463 13.99908,0 21.77634,9.33272 7.25878,8.72782 7.25878,23.07255 z m 70.25466,32.40527 -17.88771,24.19594 h -13.04852 l 10.97458,-24.19594 z m -30.24492,0 -18.23337,24.19594 h -12.44362 l 10.4561,-24.19594 z m 40.78743,-89.26572 q 14.34474,18.31978 22.55407,40.00971 8.20934,21.68993 8.20934,43.0342 0,24.02311 -8.72782,44.67607 -8.72782,20.65296 -22.03559,38.28143 h -11.14741 q 15.3817,-25.23291 20.56655,-44.15759 5.27125,-19.01109 5.27125,-38.62708 0,-41.82441 -25.8378,-83.21674 z"
       style="font-size:176.976px;stroke-width:16.0001"
       />
  </g>
</svg>
